<svg width="136" height="121" viewBox="0 0 136 121" fill="none" xmlns="http://www.w3.org/2000/svg">
<path id="box" d="M94.9146 0.0151804C99.7646 -0.21482 103.155 2.1852 105.525 6.0952C114.045 20.1619 122.508 34.2619 130.915 48.3952C132.125 50.3952 133.305 52.4552 134.315 54.5752C134.868 55.8394 135.144 57.2073 135.125 58.5871C135.106 59.9668 134.792 61.3266 134.205 62.5752C133.67 63.9036 132.999 65.1736 132.205 66.3652C124.675 77.4252 117.205 88.4852 109.535 99.4752C106.945 103.215 104.155 106.825 101.285 110.355C100.307 111.339 99.1356 112.109 97.8446 112.615C93.1646 114.935 88.0246 115.175 82.9646 115.745L56.0747 118.745C50.9947 119.325 45.9247 119.925 40.8447 120.465C37.9047 120.775 35.2847 119.715 32.8447 118.275C32.3082 117.929 31.8624 117.459 31.5447 116.905C27.3747 110.295 23.1647 103.695 19.1047 97.0252C13.4347 87.7252 7.89466 78.3452 2.27466 69.0252C-0.965335 63.6552 -0.725329 59.2652 2.87467 54.1352C11.1147 42.4052 19.3446 30.6652 27.4146 18.8252C30.3256 14.8184 33.7214 11.1875 37.5247 8.01518C38.4169 7.33652 39.4724 6.90533 40.5847 6.76518C45.1847 5.99851 49.7947 5.29851 54.4146 4.66517C58.7246 4.07517 63.0546 3.60519 67.4146 3.08519C73.9546 2.30519 80.4946 1.53519 87.0346 0.77519C89.6146 0.55519 92.2546 0.28518 94.9146 0.0151804ZM11.0847 60.0952C11.6952 60.1671 12.3102 60.1939 12.9247 60.1752C17.8447 59.6352 22.7647 59.0652 27.6747 58.5052L47.6747 56.2352C52.3447 55.7052 57.0247 55.1852 61.6747 54.5852C62.233 54.578 62.7828 54.4469 63.2844 54.2014C63.7859 53.9558 64.2266 53.6019 64.5747 53.1652C74.2147 39.2652 83.8814 25.3652 93.5747 11.4652C93.8127 11.0634 94.0296 10.6495 94.2246 10.2252C93.6646 10.2252 93.3146 10.2252 92.9746 10.2252C88.5346 10.7752 84.1147 11.3652 79.6747 11.8952C67.7547 13.3285 55.828 14.7552 43.8947 16.1752C43.1589 16.2351 42.4456 16.4571 41.8059 16.8254C41.1662 17.1937 40.6159 17.699 40.1946 18.3052C36.7746 23.3052 33.3546 28.2352 29.8846 33.1652C23.958 41.5852 18.0113 49.9918 12.0447 58.3852C11.6896 58.9348 11.369 59.5059 11.0847 60.0952V60.0952ZM101.085 18.3452C100.96 18.4432 100.843 18.5501 100.735 18.6652C97.7347 23.1252 94.7347 27.5952 91.6347 32.0352C85.828 40.4419 79.998 48.8352 74.1447 57.2152C73.6234 57.7846 73.3148 58.5166 73.271 59.2874C73.2273 60.0582 73.4511 60.8204 73.9047 61.4452C78.3047 68.5352 82.5846 75.6952 86.9046 82.8352C90.2846 88.4352 93.6346 94.0452 97.0846 99.8352C97.5546 99.1652 97.9747 98.5852 98.3647 97.9952C100.295 95.1052 102.185 92.1852 104.165 89.3252C110.785 79.7318 117.428 70.1519 124.095 60.5852C125.095 59.2252 125.275 58.0352 124.215 56.6952C124.031 56.4329 123.864 56.159 123.715 55.8752C120.425 50.4552 117.115 45.0352 113.845 39.6052C109.615 32.5552 105.395 25.4652 101.115 18.3452H101.085ZM88.4347 105.005C88.1547 104.475 87.9846 104.125 87.7846 103.795C82.4046 94.8752 77.0247 85.9552 71.6447 77.0352C69.4847 73.4452 67.3747 69.8252 65.2347 66.2252C64.7247 65.3752 64.2347 64.5052 62.9647 64.6752C59.3247 65.1252 55.6747 65.4752 52.0247 65.8952C41.718 67.0885 31.408 68.2852 21.0947 69.4852C19.0947 69.7152 17.0947 70.0352 14.7847 70.3552C15.5747 71.7152 16.1847 72.7752 16.7847 73.8252C19.7847 78.8252 22.7847 83.8252 25.7847 88.8252C29.6713 95.3252 33.5547 101.835 37.4347 108.355C38.4347 110.095 38.6947 110.595 40.9347 110.305C48.4547 109.305 56.0047 108.565 63.5347 107.715C69.6813 107.049 75.8313 106.382 81.9847 105.715C84.1247 105.435 86.2146 105.235 88.4646 105.005H88.4347Z" fill="#22262A"/>
</svg>
