<svg id="Layer_1" data-name="Layer 1" xmlns="http://www.w3.org/2000/svg" viewBox="0 0 16.37 16.37"><defs><style>.cls-1{fill:#e0eff6;opacity:0.8;}.cls-2,.cls-3,.cls-4{fill:none;}.cls-2{stroke:#323232;}.cls-2,.cls-3{stroke-linecap:round;stroke-linejoin:round;stroke-width:0.75px;}.cls-3{stroke:#f8c44a;}</style></defs><path class="cls-1" d="M15.21,19C25,11.07,12.32.29,5.7,6.18S11.73,21.83,15.21,19Z" transform="translate(-3.81 -3.81)"/><path class="cls-2" d="M9.8,12.39V10.16A2.24,2.24,0,0,1,12,7.92h0a2.23,2.23,0,0,1,2.23,2.24v.32" transform="translate(-3.81 -3.81)"/><path class="cls-2" d="M9.8,11.11H11a1.36,1.36,0,0,1,1.36,1.36h0a1.39,1.39,0,0,1-.4,1l-.88.88" transform="translate(-3.81 -3.81)"/><path class="cls-3" d="M7.89,10.48V15A2.51,2.51,0,0,0,10.4,17.5h0a2.5,2.5,0,0,0,2.43-1.9h0a2,2,0,0,1,.69-1.07l1.17-.94a4,4,0,0,0,1.5-3.11h0v-.32A4.15,4.15,0,0,0,12,6h0a4.14,4.14,0,0,0-4.15,4.15Z" transform="translate(-3.81 -3.81)"/><path class="cls-4" d="M3.81,3.81H20.19V20.19H3.81Z" transform="translate(-3.81 -3.81)"/></svg>