<svg width="236" height="197" viewBox="0 0 236 197" fill="none" xmlns="http://www.w3.org/2000/svg">
<g id="delivery_logo 1">
<g clip-path="url(#clip0)">
<path id="box" d="M94.98 0.0100077C99.83 -0.219992 103.22 2.18002 105.59 6.09002C114.11 20.1567 122.573 34.2567 130.98 48.39C132.19 50.39 133.37 52.45 134.38 54.57C134.933 55.8343 135.209 57.2021 135.19 58.5819C135.171 59.9617 134.857 61.3214 134.27 62.57C133.735 63.8985 133.065 65.1685 132.27 66.36C124.74 77.42 117.27 88.48 109.6 99.47C107.01 103.21 104.22 106.82 101.35 110.35C100.372 111.334 99.201 112.103 97.91 112.61C93.23 114.93 88.09 115.17 83.03 115.74L56.14 118.74C51.06 119.32 45.99 119.92 40.91 120.46C37.97 120.77 35.35 119.71 32.91 118.27C32.3735 117.924 31.9278 117.454 31.61 116.9C27.44 110.29 23.23 103.69 19.17 97.02C13.5 87.72 7.96 78.34 2.34 69.02C-0.899997 63.65 -0.659991 59.26 2.94001 54.13C11.18 42.4 19.41 30.66 27.48 18.82C30.3909 14.8132 33.7868 11.1823 37.59 8.01001C38.4822 7.33134 39.5378 6.90016 40.65 6.76001C45.25 5.99334 49.86 5.29334 54.48 4.66C58.79 4.07 63.12 3.60001 67.48 3.08001C74.02 2.30001 80.56 1.53002 87.1 0.770017C89.68 0.550017 92.32 0.280008 94.98 0.0100077ZM11.15 60.09C11.7605 60.162 12.3755 60.1887 12.99 60.17C17.91 59.63 22.83 59.06 27.74 58.5L47.74 56.23C52.41 55.7 57.09 55.18 61.74 54.58C62.2984 54.5729 62.8482 54.4418 63.3497 54.1962C63.8512 53.9506 64.2919 53.5967 64.64 53.16C74.28 39.26 83.9467 25.36 93.64 11.46C93.8781 11.0582 94.095 10.6444 94.29 10.22C93.73 10.22 93.38 10.22 93.04 10.22C88.6 10.77 84.18 11.36 79.74 11.89C67.82 13.3233 55.8933 14.75 43.96 16.17C43.2243 16.2299 42.5109 16.452 41.8712 16.8202C41.2315 17.1885 40.6813 17.6939 40.26 18.3C36.84 23.3 33.42 28.23 29.95 33.16C24.0233 41.58 18.0767 49.9867 12.11 58.38C11.755 58.9296 11.4344 59.5007 11.15 60.09V60.09ZM101.15 18.34C101.026 18.438 100.909 18.545 100.8 18.66C97.8 23.12 94.8 27.59 91.7 32.03C85.8934 40.4367 80.0633 48.83 74.21 57.21C73.6887 57.7795 73.3801 58.5115 73.3364 59.2823C73.2926 60.053 73.5165 60.8153 73.97 61.44C78.37 68.53 82.65 75.69 86.97 82.83C90.35 88.43 93.7 94.04 97.15 99.83C97.62 99.16 98.04 98.58 98.43 97.99C100.36 95.1 102.25 92.18 104.23 89.32C110.85 79.7267 117.493 70.1467 124.16 60.58C125.16 59.22 125.34 58.03 124.28 56.69C124.096 56.4277 123.929 56.1538 123.78 55.87C120.49 50.45 117.18 45.03 113.91 39.6C109.68 32.55 105.46 25.46 101.18 18.34H101.15ZM88.5 105C88.22 104.47 88.05 104.12 87.85 103.79C82.47 94.87 77.09 85.95 71.71 77.03C69.55 73.44 67.44 69.82 65.3 66.22C64.79 65.37 64.3 64.5 63.03 64.67C59.39 65.12 55.74 65.47 52.09 65.89C41.7833 67.0833 31.4733 68.28 21.16 69.48C19.16 69.71 17.16 70.03 14.85 70.35C15.64 71.71 16.25 72.77 16.85 73.82C19.85 78.82 22.85 83.82 25.85 88.82C29.7367 95.32 33.62 101.83 37.5 108.35C38.5 110.09 38.76 110.59 41 110.3C48.52 109.3 56.07 108.56 63.6 107.71C69.7467 107.043 75.8967 106.377 82.05 105.71C84.19 105.43 86.28 105.23 88.53 105H88.5Z" fill="#22262A"/>
<g id="trails">
<path id="Vector" d="M235.41 178.15C235.411 179.501 235.017 180.823 234.277 181.953C233.537 183.083 232.482 183.972 231.243 184.51C230.004 185.049 228.635 185.214 227.304 184.985C225.973 184.755 224.737 184.142 223.75 183.22C217.94 177.73 212.2 172.22 206.42 166.66L176.11 137.66C169.303 131.14 162.5 124.61 155.7 118.07C152.42 114.92 149.11 111.79 145.84 108.62C144.963 107.815 144.321 106.787 143.983 105.646C143.645 104.504 143.623 103.293 143.92 102.14C144.178 100.92 144.759 99.7928 145.603 98.8755C146.447 97.9582 147.522 97.2852 148.716 96.9271C149.91 96.5691 151.179 96.5391 152.388 96.8405C153.598 97.1419 154.704 97.7635 155.59 98.64C159.59 102.41 163.49 106.22 167.44 110.01L195.57 136.96L211.68 152.36C218.6 158.993 225.53 165.62 232.47 172.24C234.19 173.87 235.54 175.62 235.41 178.15Z" fill="#F7C34A"/>
<path id="Vector_2" d="M205.19 184.03C205.054 185.323 204.56 186.553 203.763 187.581C202.967 188.609 201.9 189.396 200.682 189.851C199.464 190.307 198.143 190.415 196.868 190.162C195.592 189.909 194.412 189.306 193.46 188.42C187.57 182.85 181.73 177.22 175.88 171.61L147.5 144.41L130.97 128.55C130.02 127.64 129.03 126.76 128.11 125.82C126.847 124.571 126.106 122.888 126.037 121.113C125.968 119.338 126.577 117.603 127.74 116.26C128.317 115.564 129.028 114.991 129.831 114.574C130.633 114.158 131.511 113.906 132.413 113.835C133.314 113.763 134.22 113.872 135.079 114.157C135.937 114.441 136.73 114.894 137.41 115.49C141.05 118.72 144.49 122.18 148.01 125.55L176.47 152.83L192.83 168.55C196.263 171.83 199.693 175.12 203.12 178.42C204.56 179.79 205.18 181.38 205.19 184.03Z" fill="#F7C34A"/>
<path id="Vector_3" d="M116.54 132.3C117.443 132.289 118.339 132.461 119.174 132.804C120.009 133.148 120.766 133.657 121.4 134.3L134.4 146.83L162.77 174.02C166.55 177.64 170.35 181.23 174.09 184.89C174.76 185.495 175.299 186.23 175.676 187.05C176.052 187.87 176.257 188.758 176.279 189.661C176.3 190.563 176.138 191.46 175.801 192.297C175.464 193.134 174.96 193.894 174.32 194.53C171.4 197.53 167.32 197.72 164.41 194.9C158.05 188.84 151.717 182.76 145.41 176.66C135.95 167.6 126.493 158.537 117.04 149.47C115.19 147.7 113.32 145.96 111.51 144.16C110.521 143.214 109.849 141.986 109.586 140.643C109.322 139.3 109.481 137.909 110.04 136.66C110.579 135.378 111.482 134.282 112.637 133.507C113.792 132.732 115.149 132.312 116.54 132.3V132.3Z" fill="#F7C34B"/>
</g>
</g>
</g>
<defs>
<clipPath id="clip0">
<rect width="235.42" height="196.9" fill="white"/>
</clipPath>
</defs>
</svg>
