<svg id="Layer_1" data-name="Layer 1" xmlns="http://www.w3.org/2000/svg" viewBox="0 0 24 24"><defs><style>.cls-1,.cls-2,.cls-3{fill:none;}.cls-1{stroke:#323232;}.cls-1,.cls-2{stroke-linecap:round;stroke-linejoin:round;stroke-width:1.5px;}.cls-2{stroke:#f8c44a;}</style></defs><path class="cls-1" d="M8.5,13V9.5A3.5,3.5,0,0,1,12,6h0a3.5,3.5,0,0,1,3.5,3.5V10"/><path class="cls-1" d="M8.5,11h1.88a2.12,2.12,0,0,1,2.12,2.12h0a2.12,2.12,0,0,1-.62,1.5L10.5,16"/><path class="cls-2" d="M5.5,10v7.07A3.93,3.93,0,0,0,9.43,21h0a3.93,3.93,0,0,0,3.81-3h0a3.19,3.19,0,0,1,1.08-1.68l1.84-1.47A6.22,6.22,0,0,0,18.5,10h0V9.5A6.5,6.5,0,0,0,12,3h0A6.5,6.5,0,0,0,5.5,9.5Z"/><path class="cls-3" d="M0,0H24V24H0Z"/></svg>