<svg id="Layer_1" data-name="Layer 1" xmlns="http://www.w3.org/2000/svg" viewBox="0 0 21.98 22.03"><defs><style>.cls-1{fill:#e0eff6;opacity:0.8;}.cls-2,.cls-3{fill:none;stroke-linecap:round;stroke-linejoin:round;}.cls-2{stroke:#f8c44a;stroke-width:0.75px;}.cls-3{stroke:#212529;stroke-width:0.5px;}</style></defs><path class="cls-1" d="M17.72,22.68C32.13,11,13.48-4.77,3.78,3.86S12.62,26.8,17.72,22.68Z" transform="translate(-1.01 -1.39)"/><path class="cls-2" d="M8.56,7.12h9.2a1,1,0,0,1,1,1v6a1,1,0,0,1-1,1H8.56a1,1,0,0,1-1-1v-6A1,1,0,0,1,8.56,7.12Z" transform="translate(-1.01 -1.39)"/><path class="cls-2" d="M7.61,7.82l4.66,3.34a1.52,1.52,0,0,0,1.75,0l4.69-3.34" transform="translate(-1.01 -1.39)"/><path class="cls-3" d="M15.44,17.68H6.72a1.51,1.51,0,0,1-1.5-1.51V10.61" transform="translate(-1.01 -1.39)"/></svg>