<svg id="Layer_1" data-name="Layer 1" xmlns="http://www.w3.org/2000/svg" viewBox="0 0 24 24"><defs><style>.cls-1,.cls-2,.cls-3{fill:none;}.cls-1{stroke:#f8c44a;}.cls-1,.cls-2{stroke-linecap:round;stroke-linejoin:round;stroke-width:1.5px;}.cls-2{stroke:#212529;}</style></defs><path class="cls-1" d="M12,21a9,9,0,1,1,9-9"/><line class="cls-1" x1="3.51" y1="9" x2="20.49" y2="9"/><line class="cls-1" x1="3.51" y1="15" x2="12" y2="15"/><path class="cls-2" d="M22,22l-1.86-1.86"/><path class="cls-2" d="M18,15a3,3,0,1,1-3,3,3,3,0,0,1,3-3"/><path class="cls-1" d="M16,12a15.43,15.43,0,0,0-2.17-7.94,2.11,2.11,0,0,0-3.66,0,15.63,15.63,0,0,0,0,15.88A2.11,2.11,0,0,0,12,21"/><rect class="cls-3" width="24" height="24"/></svg>