<svg id="Layer_1" data-name="Layer 1" xmlns="http://www.w3.org/2000/svg" viewBox="0 0 21.98 22.03"><defs><style>.cls-1{fill:#e0eff6;opacity:0.8;}.cls-2,.cls-3,.cls-4{fill:none;stroke-linecap:round;stroke-linejoin:round;}.cls-2{stroke:#f8c44a;}.cls-2,.cls-3{stroke-width:0.75px;}.cls-3,.cls-4{stroke:#212529;}.cls-4{stroke-width:0.5px;}</style></defs><path class="cls-1" d="M17.72,23.27C32.13,11.63,13.48-4.19,3.78,4.45S12.62,27.39,17.72,23.27Z" transform="translate(-1.01 -1.97)"/><path class="cls-2" d="M12,19.26A7.26,7.26,0,1,1,19.26,12" transform="translate(-1.01 -1.97)"/><line class="cls-2" x1="4.15" y1="7.61" x2="17.84" y2="7.61"/><line class="cls-2" x1="4.15" y1="12.45" x2="10.99" y2="12.45"/><path class="cls-3" d="M20,20l-1.29-1.29" transform="translate(-1.01 -1.97)"/><path class="cls-4" d="M16.84,14.42a2.42,2.42,0,1,1-2.42,2.42,2.42,2.42,0,0,1,2.42-2.42" transform="translate(-1.01 -1.97)"/><path class="cls-2" d="M15.23,12a12.5,12.5,0,0,0-1.75-6.4,1.71,1.71,0,0,0-3,0,12.59,12.59,0,0,0,0,12.8,1.72,1.72,0,0,0,1.48.86" transform="translate(-1.01 -1.97)"/></svg>