<svg id="Layer_1" data-name="Layer 1" xmlns="http://www.w3.org/2000/svg" viewBox="0 0 16.37 16.45"><defs><style>.cls-1{fill:#e0eff6;opacity:0.8;}.cls-2,.cls-3,.cls-4{fill:none;}.cls-2{stroke:#f8c44a;}.cls-2,.cls-3{stroke-linecap:round;stroke-linejoin:round;stroke-width:0.75px;}.cls-3{stroke:#323232;}</style></defs><path class="cls-1" d="M15.9,19.77C25.73,11.83,13,1,6.39,6.93S12.42,22.58,15.9,19.77Z" transform="translate(-3.81 -3.81)"/><path class="cls-2" d="M11.71,17.1A5.27,5.27,0,1,1,17,11.84" transform="translate(-3.81 -3.81)"/><line class="cls-2" x1="2.93" y1="6.27" x2="12.86" y2="6.27"/><line class="cls-2" x1="2.93" y1="9.78" x2="7.89" y2="9.78"/><path class="cls-3" d="M17.55,17.68l-1.08-1.09" transform="translate(-3.81 -3.81)"/><path class="cls-3" d="M15.22,13.59a1.76,1.76,0,1,1-1.76,1.75,1.76,1.76,0,0,1,1.76-1.75" transform="translate(-3.81 -3.81)"/><path class="cls-2" d="M14.05,11.84a9.11,9.11,0,0,0-1.27-4.65,1.24,1.24,0,0,0-2.14,0,9.14,9.14,0,0,0,0,9.29,1.24,1.24,0,0,0,1.07.62" transform="translate(-3.81 -3.81)"/><rect class="cls-4" width="16.37" height="16.37"/></svg>