<svg width="20" height="21" viewBox="0 0 20 21" fill="none" xmlns="http://www.w3.org/2000/svg"><g clip-path="url(#a)"><path d="M17.083 8h-1.25V6.333A5.84 5.84 0 0 0 10 .5a5.84 5.84 0 0 0-5.833 5.833V8h-1.25a.416.416 0 0 0-.417.417v10.416c0 .92.747 1.667 1.667 1.667h11.666c.92 0 1.667-.747 1.667-1.667V8.417A.416.416 0 0 0 17.083 8zm-5.835 8.704a.417.417 0 0 1-.415.463H9.167a.417.417 0 0 1-.415-.463l.263-2.364A1.649 1.649 0 0 1 8.333 13c0-.92.748-1.667 1.667-1.667.92 0 1.667.748 1.667 1.667 0 .539-.255 1.03-.682 1.34l.263 2.364zM13.333 8H6.667V6.333A3.337 3.337 0 0 1 10 3a3.337 3.337 0 0 1 3.333 3.333V8z" fill="#fff"/></g><defs><clipPath id="a"><path fill="#fff" d="M0 .5h20v20H0z"/></clipPath></defs></svg>