<svg width="194" height="50" viewBox="0 0 194 50" fill="none" xmlns="http://www.w3.org/2000/svg"><path d="M93.035 14.615h-8.26V36H80.82V14.615h-8.295V11.15h20.51v3.465zm9.27 6.405c-1.493.047-2.823.397-3.99 1.05-1.143.63-1.96 1.54-2.45 2.73V36h-3.85V17.695h3.57v4.095c.63-1.26 1.447-2.263 2.45-3.01 1.027-.77 2.123-1.19 3.29-1.26h.56c.163 0 .303.012.42.035v3.465zm7.427 15.33c-.887 0-1.715-.14-2.485-.42a6.475 6.475 0 0 1-1.96-1.225 5.988 5.988 0 0 1-1.295-1.82 5.648 5.648 0 0 1-.455-2.275c0-.863.186-1.645.56-2.345a5.55 5.55 0 0 1 1.575-1.82c.7-.513 1.516-.91 2.45-1.19.956-.28 2.006-.42 3.15-.42.863 0 1.715.082 2.555.245.84.14 1.598.338 2.275.595v-1.26c0-1.353-.385-2.403-1.155-3.15-.77-.77-1.879-1.155-3.325-1.155a7.93 7.93 0 0 0-2.905.56c-.934.35-1.902.863-2.905 1.54l-1.19-2.45c2.356-1.587 4.806-2.38 7.35-2.38 2.52 0 4.48.642 5.88 1.925 1.4 1.283 2.1 3.127 2.1 5.53v6.615c0 .817.338 1.237 1.015 1.26V36c-.374.07-.7.117-.98.14a8.53 8.53 0 0 1-.77.035c-.747 0-1.33-.187-1.75-.56-.397-.373-.642-.852-.735-1.435l-.105-1.155a8.291 8.291 0 0 1-3.045 2.485 8.93 8.93 0 0 1-3.85.84zm1.05-2.835c.933 0 1.808-.163 2.625-.49.84-.35 1.493-.828 1.96-1.435.49-.42.735-.863.735-1.33v-2.415a11.582 11.582 0 0 0-2.1-.595c-.724-.14-1.435-.21-2.135-.21-1.377 0-2.509.303-3.395.91-.864.583-1.295 1.365-1.295 2.345 0 .91.338 1.68 1.015 2.31.676.607 1.54.91 2.59.91zm12.651-6.685c0-1.283.221-2.497.665-3.64a9.13 9.13 0 0 1 1.89-3.01 9.015 9.015 0 0 1 3.01-2.03c1.166-.513 2.473-.77 3.92-.77 1.89 0 3.511.42 4.865 1.26 1.376.817 2.403 1.913 3.08 3.29l-3.745 1.19a4.693 4.693 0 0 0-1.785-1.785 4.777 4.777 0 0 0-2.485-.665c-.77 0-1.494.152-2.17.455a5.126 5.126 0 0 0-1.715 1.295 5.881 5.881 0 0 0-1.155 1.925c-.28.747-.42 1.575-.42 2.485 0 .887.14 1.715.42 2.485.303.747.7 1.4 1.19 1.96a5.992 5.992 0 0 0 1.75 1.33 5.159 5.159 0 0 0 2.135.455c.466 0 .933-.058 1.4-.175a5.2 5.2 0 0 0 1.26-.56 4.428 4.428 0 0 0 1.015-.805 2.93 2.93 0 0 0 .665-.98l3.78 1.12c-.607 1.377-1.622 2.508-3.045 3.395-1.424.863-3.104 1.295-5.04 1.295-1.424 0-2.719-.257-3.885-.77a9.465 9.465 0 0 1-3.01-2.065 10.053 10.053 0 0 1-1.925-3.045 9.965 9.965 0 0 1-.665-3.64zm33.48 9.17l-5.845-8.435-3.045 2.87V36h-3.85V10.45h3.85v16.205l8.4-8.925h4.2l-7.105 7.665L161.008 36h-4.095zm13.773.35c-1.423 0-2.718-.245-3.885-.735a9.465 9.465 0 0 1-3.01-2.065 9.63 9.63 0 0 1-1.925-3.01 9.986 9.986 0 0 1-.665-3.64c0-1.283.222-2.497.665-3.64a9.53 9.53 0 0 1 1.925-3.045 8.768 8.768 0 0 1 3.01-2.065c1.167-.513 2.473-.77 3.92-.77 1.423 0 2.707.257 3.85.77 1.167.513 2.158 1.202 2.975 2.065a8.33 8.33 0 0 1 1.855 2.975 9.524 9.524 0 0 1 .63 4.34c-.023.233-.047.432-.07.595h-14.665c.07.817.257 1.552.56 2.205a6.548 6.548 0 0 0 1.225 1.715 5.764 5.764 0 0 0 1.715 1.085c.653.257 1.33.385 2.03.385a6.46 6.46 0 0 0 1.505-.175c.513-.14.98-.327 1.4-.56a5.33 5.33 0 0 0 1.12-.91c.327-.35.583-.735.77-1.155l3.29.945c-.63 1.377-1.68 2.508-3.15 3.395-1.447.863-3.138 1.295-5.075 1.295zm5.565-10.885a5.922 5.922 0 0 0-.595-2.135 5.053 5.053 0 0 0-1.19-1.645 5.237 5.237 0 0 0-1.715-1.085 5.596 5.596 0 0 0-2.065-.385 5.59 5.59 0 0 0-2.065.385 5.33 5.33 0 0 0-1.68 1.085c-.49.443-.887.992-1.19 1.645a6.415 6.415 0 0 0-.56 2.135h11.06zm17.245-4.445c-1.493.047-2.823.397-3.99 1.05-1.143.63-1.96 1.54-2.45 2.73V36h-3.85V17.695h3.57v4.095c.63-1.26 1.447-2.263 2.45-3.01 1.027-.77 2.124-1.19 3.29-1.26h.56c.164 0 .304.012.42.035v3.465zM44.977 42.032l-9.806-9.806a19.696 19.696 0 0 0 4.412-12.434C39.583 8.88 30.703.001 19.79.001S0 8.88 0 19.792c0 10.913 8.88 19.792 19.791 19.792 4.709 0 9.032-1.659 12.434-4.413l9.806 9.807c.407.406.94.61 1.474.61a2.081 2.081 0 0 0 1.473-3.556zm-25.185-6.615c-8.617 0-15.625-7.008-15.625-15.625 0-8.616 7.008-15.625 15.624-15.625 8.617 0 15.625 7.009 15.625 15.625 0 8.617-7.008 15.625-15.624 15.625z" fill="#303030"/><path d="M14.828 15.053l8.363-3.586-3.463-1.422a.601.601 0 0 0-.456 0l-8.317 3.417 3.873 1.59zm9.919-2.946l-8.365 3.584 3.118 1.28 8.545-3.51-3.298-1.354zM18.9 18.024l-3.385-1.39v2.632a.6.6 0 0 1-1.2 0V16.14l-3.899-1.601v10.573a.6.6 0 0 0 .372.556L18.9 29V18.024zm1.2 0V29l8.112-3.332a.6.6 0 0 0 .372-.556V14.54l-8.483 3.485z" fill="#ED3232"/></svg>