<svg id="Layer_1" data-name="Layer 1" xmlns="http://www.w3.org/2000/svg" viewBox="0 0 16.37 16.37"><defs><style>.cls-1{fill:#e0eff6;opacity:0.8;}.cls-2,.cls-3,.cls-4{fill:none;}.cls-2{stroke:#f8c44a;}.cls-2,.cls-4{stroke-linecap:round;stroke-linejoin:round;stroke-width:0.75px;}.cls-4{stroke:#323232;}</style></defs><path class="cls-1" d="M15.9,18.34C25.73,10.4,13-.39,6.39,5.5S12.42,21.15,15.9,18.34Z" transform="translate(-3.81 -3.81)"/><path class="cls-2" d="M10.17,9.19v1.18a.36.36,0,0,0,.32.39h1.9a.35.35,0,0,0,.31-.39V9.19" transform="translate(-3.81 -3.81)"/><path class="cls-2" d="M8.27,15.75V10.5A1.29,1.29,0,0,1,9.54,9.19h3.8A1.29,1.29,0,0,1,14.6,10.5v5.25" transform="translate(-3.81 -3.81)"/><path class="cls-3" d="M3.81,3.81H20.19V20.19H3.81Z" transform="translate(-3.81 -3.81)"/><path class="cls-4" d="M13.21,7.81a2.13,2.13,0,0,1,2.56,2.57" transform="translate(-3.81 -3.81)"/><path class="cls-4" d="M13.21,6.21a3.67,3.67,0,0,1,4.17,4.17" transform="translate(-3.81 -3.81)"/></svg>