<svg id="Layer_1" data-name="Layer 1" xmlns="http://www.w3.org/2000/svg" viewBox="0 0 16.37 16.37"><defs><style>.cls-1{fill:#e0eff6;opacity:0.8;}.cls-2,.cls-3,.cls-4{fill:none;}.cls-2{stroke:#323232;}.cls-2,.cls-3{stroke-linecap:round;stroke-linejoin:round;stroke-width:0.75px;}.cls-3{stroke:#f8c44a;}</style></defs><path class="cls-1" d="M15.9,18.34C25.73,10.4,13-.39,6.39,5.5S12.42,21.15,15.9,18.34Z" transform="translate(-3.81 -3.81)"/><path class="cls-2" d="M11.17,16.48l.83-.83-.83-.83" transform="translate(-3.81 -3.81)"/><path class="cls-2" d="M17.53,12.13a1.5,1.5,0,0,1,.69,1.11c0,1-1.62,1.88-3.91,2.24" transform="translate(-3.81 -3.81)"/><path class="cls-2" d="M6.47,12.13a1.5,1.5,0,0,0-.69,1.11c0,1.33,2.79,2.41,6.22,2.41" transform="translate(-3.81 -3.81)"/><path class="cls-3" d="M10.51,5.29V6.64a.41.41,0,0,0,.37.44h2.24a.41.41,0,0,0,.37-.44V5.29" transform="translate(-3.81 -3.81)"/><path class="cls-3" d="M8.27,12.75v-6A1.49,1.49,0,0,1,9.76,5.29h4.48a1.49,1.49,0,0,1,1.49,1.49v6" transform="translate(-3.81 -3.81)"/><path class="cls-4" d="M3.81,3.81H20.19V20.19H3.81Z" transform="translate(-3.81 -3.81)"/></svg>