<svg id="Layer_1" data-name="Layer 1" xmlns="http://www.w3.org/2000/svg" viewBox="0 0 16.37 16.7"><defs><style>.cls-1{fill:#e0eff6;opacity:0.8;}.cls-2,.cls-3,.cls-4{fill:none;}.cls-2{stroke:#323232;}.cls-2,.cls-3{stroke-linecap:round;stroke-linejoin:round;stroke-width:0.75px;}.cls-3{stroke:#f8c44a;}</style></defs><path class="cls-1" d="M15.9,20C25.73,12.07,13,1.28,6.39,7.17S12.42,22.82,15.9,20Z" transform="translate(-3.81 -3.81)"/><path class="cls-2" d="M13.9,10.5l-2.83,2.83-1.7-1.69" transform="translate(-3.81 -3.81)"/><path class="cls-3" d="M16.73,11.64h0a5.09,5.09,0,0,1-5.09,5.09h0a5.09,5.09,0,0,1-5.1-5.09h0a5.1,5.1,0,0,1,5.1-5.1h0A5.09,5.09,0,0,1,16.73,11.64Z" transform="translate(-3.81 -3.81)"/><path class="cls-3" d="M17.46,17.46l-2.22-2.22" transform="translate(-3.81 -3.81)"/><path class="cls-4" d="M3.81,3.81H20.19V20.19H3.81Z" transform="translate(-3.81 -3.81)"/></svg>