<svg width="32" height="33" viewBox="0 0 32 33" fill="none" xmlns="http://www.w3.org/2000/svg"><g clip-path="url(#a)"><path d="M31.609 30.238l-9.1-9.1a12.605 12.605 0 0 0 2.824-7.958C25.333 6.198 19.65.514 12.667.514 5.682.514 0 6.197 0 13.181c0 6.983 5.683 12.666 12.667 12.666 3.013 0 5.78-1.061 7.957-2.824l9.1 9.1a1.33 1.33 0 0 0 1.885 0 1.332 1.332 0 0 0 0-1.885zM12.667 23.18c-5.515 0-10-4.485-10-10 0-5.514 4.485-10 10-10 5.514 0 10 4.486 10 10 0 5.515-4.486 10-10 10z" fill="#fff"/></g><defs><clipPath id="a"><path fill="#fff" d="M0 .513h32v32H0z"/></clipPath></defs></svg>