<svg id="Layer_1" data-name="Layer 1" xmlns="http://www.w3.org/2000/svg" viewBox="0 0 16.37 16.37"><defs><style>.cls-1{fill:#e0eff6;opacity:0.8;}.cls-2,.cls-3,.cls-4{fill:none;}.cls-3{stroke:#f8c44a;}.cls-3,.cls-4{stroke-linecap:round;stroke-linejoin:round;stroke-width:0.75px;}.cls-4{stroke:#323232;}</style></defs><path class="cls-1" d="M15.9,19C25.73,11.07,13,.29,6.39,6.18S12.42,21.83,15.9,19Z" transform="translate(-3.81 -3.81)"/><path class="cls-2" d="M3.81,3.81H20.19V20.19H3.81Z" transform="translate(-3.81 -3.81)"/><path class="cls-3" d="M7.31,10.67v-.12A4.69,4.69,0,0,1,12,5.86h0a4.69,4.69,0,0,1,4.69,4.69v.12c0,2.36-3,5.91-4.2,7.25a.66.66,0,0,1-1,0C10.3,16.58,7.31,13,7.31,10.67Z" transform="translate(-3.81 -3.81)"/><path class="cls-4" d="M10.64,10.6A1.36,1.36,0,0,0,12,12h0a1.36,1.36,0,0,0,1.36-1.37v0A1.36,1.36,0,0,0,12,9.22h0a1.36,1.36,0,0,0-1.36,1.36" transform="translate(-3.81 -3.81)"/></svg>