<svg width="45" height="45" viewBox="0 0 45 45" fill="none" xmlns="http://www.w3.org/2000/svg"><g clip-path="url(#a)" fill="#ED3232"><path d="M23.304 44.973c3.441-.489 6.458-4.08 8.356-9.384a40.846 40.846 0 0 0-8.356-.984v10.368zm5.498-.843c.204-.059.406-.118.607-.184.17-.054.337-.113.505-.171.197-.069.394-.14.59-.214.168-.063.334-.13.5-.199l.572-.24a23.725 23.725 0 0 0 1.53-.747 23.406 23.406 0 0 0 1.991-1.196 41.217 41.217 0 0 0 .948-.674c.16-.124.326-.252.487-.381.144-.114.287-.228.428-.345.16-.134.314-.272.47-.41.137-.121.274-.242.408-.366.153-.144.303-.292.452-.44.13-.127.261-.253.388-.384l.07-.076a27.029 27.029 0 0 0-5.51-2.12 19.957 19.957 0 0 1-5.14 8.346l.195-.048c.172-.048.341-.101.51-.151zM45 23.323h-9.643a41.708 41.708 0 0 1-1.624 11.126 27.973 27.973 0 0 1 6.104 2.429A22.469 22.469 0 0 0 45 23.323zm-21.696-1.609H33.75a40.232 40.232 0 0 0-1.584-10.73 42.36 42.36 0 0 1-8.86 1.056v9.674zm0-21.65v10.368a40.88 40.88 0 0 0 8.356-.984C29.762 4.144 26.745.552 23.304.064zm0 32.933a42.42 42.42 0 0 1 8.861 1.057c1.01-3.49 1.543-7.1 1.584-10.731H23.304v9.674zM39.837 8.159a27.971 27.971 0 0 1-6.104 2.429 41.708 41.708 0 0 1 1.624 11.126H45A22.476 22.476 0 0 0 39.837 8.16zm-1.087-1.22l-.069-.075c-.127-.131-.259-.257-.388-.385-.15-.147-.298-.296-.452-.44-.133-.123-.271-.24-.408-.364a18.258 18.258 0 0 0-.472-.411c-.139-.118-.281-.23-.423-.343a17.23 17.23 0 0 0-.932-.706 19.46 19.46 0 0 0-1.489-.981 22.597 22.597 0 0 0-1.01-.574c-.161-.08-.322-.168-.483-.249a17.626 17.626 0 0 0-.563-.272 17.377 17.377 0 0 0-.49-.224c-.19-.084-.383-.16-.575-.24a19.25 19.25 0 0 0-1.089-.41 21.164 21.164 0 0 0-.504-.174 19.658 19.658 0 0 0-.609-.184c-.167-.049-.335-.099-.504-.144-.065-.017-.131-.031-.196-.048a19.958 19.958 0 0 1 5.14 8.346A26.99 26.99 0 0 0 38.75 6.94zM0 21.714h9.643a41.724 41.724 0 0 1 1.623-11.126 27.938 27.938 0 0 1-6.103-2.43A22.47 22.47 0 0 0 0 21.715zm21.696 23.259V34.605c-2.812.04-5.612.37-8.356.984 1.898 5.304 4.915 8.895 8.356 9.384zm0-21.65H11.25a40.213 40.213 0 0 0 1.584 10.73 42.325 42.325 0 0 1 8.86-1.056v-9.674zm0-23.259c-3.441.488-6.458 4.08-8.356 9.384 2.744.615 5.544.944 8.356.984V.064zm0 11.976a42.36 42.36 0 0 1-8.861-1.056 40.215 40.215 0 0 0-1.584 10.73h10.445V12.04zM16.9.714c-.065.017-.13.03-.195.048-.17.045-.339.096-.508.145a26.45 26.45 0 0 0-.605.183c-.171.055-.34.114-.507.172-.197.07-.394.139-.589.213a22.84 22.84 0 0 0-.5.2l-.572.24a23.152 23.152 0 0 0-2.541 1.32A21.17 21.17 0 0 0 9.4 4.21c-.15.108-.299.215-.445.323-.165.123-.322.252-.487.38-.143.115-.288.228-.427.347-.161.132-.314.27-.47.407-.137.123-.275.242-.41.369-.152.142-.301.29-.45.437-.13.128-.262.255-.39.386l-.069.076a27 27 0 0 0 5.51 2.12A19.95 19.95 0 0 1 16.9.716zM6.707 38.558c.15.147.299.296.452.44.134.123.271.24.408.364a18.258 18.258 0 0 0 .895.754c.161.13.322.26.492.385.145.109.292.214.44.322.168.12.337.241.508.357.15.101.304.2.456.298a20.2 20.2 0 0 0 .994.601c.18.103.36.203.542.3.16.08.321.168.482.248a21.742 21.742 0 0 0 1.053.496c.19.084.383.16.575.241a18.471 18.471 0 0 0 1.089.411 18.87 18.87 0 0 0 1.113.356c.167.05.335.1.504.145.065.017.131.031.196.048a19.962 19.962 0 0 1-5.14-8.347 27.003 27.003 0 0 0-5.51 2.122l.07.075c.12.13.25.256.381.384zm-1.544-1.68a27.979 27.979 0 0 1 6.103-2.429 41.724 41.724 0 0 1-1.623-11.126H0a22.473 22.473 0 0 0 5.163 13.555z"/></g><defs><clipPath id="a"><path fill="#fff" d="M0 0h45v45H0z"/></clipPath></defs></svg>