<svg width="70" height="70" viewBox="0 0 70 70" fill="none" xmlns="http://www.w3.org/2000/svg"><g clip-path="url(#a)"><path d="M66.818 33.41H54.091a3.182 3.182 0 0 0 0 6.363h12.727a3.182 3.182 0 0 0 0-6.364z" fill="#ED3232"/><path d="M15.91 33.41H3.181a3.182 3.182 0 0 0 0 6.363h12.727a3.182 3.182 0 0 0 0-6.364z" fill="#FFBEBE"/><path d="M55.249 11.842l-9 9a3.182 3.182 0 1 0 4.5 4.5l9-9a3.182 3.182 0 1 0-4.5-4.5z" fill="#FF5757"/><path d="M35 55.682a3.182 3.182 0 0 0-3.182 3.182v6.363a3.182 3.182 0 0 0 6.364 0v-6.363A3.182 3.182 0 0 0 35 55.682z" fill="#FEE"/><path d="M19.25 47.84l-8.999 9a3.182 3.182 0 1 0 4.5 4.5l9-9a3.182 3.182 0 1 0-4.5-4.5z" fill="#FFDCDC"/><path d="M35 1.59a3.182 3.182 0 0 0-3.182 3.183V17.5a3.182 3.182 0 0 0 6.364 0V4.773A3.182 3.182 0 0 0 35 1.59z" fill="#FF8181"/><path d="M14.751 11.842a3.182 3.182 0 1 0-4.5 4.5l9 9a3.171 3.171 0 0 0 2.25.932 3.182 3.182 0 0 0 2.25-5.432l-9-9z" fill="#FFA2A2"/></g><defs><clipPath id="a"><path fill="#fff" d="M0 0h70v70H0z"/></clipPath></defs></svg>