<svg width="180" height="42" viewBox="0 0 180 42" fill="none" xmlns="http://www.w3.org/2000/svg"><path d="M74.66 10.606h-8.662V33.03h-4.147V10.606h-8.698V6.973H74.66v3.633zm9.72 6.716c-1.566.05-2.96.416-4.184 1.101-1.199.66-2.055 1.615-2.57 2.863V33.03H73.59V13.836h3.743v4.294c.66-1.321 1.517-2.373 2.57-3.156 1.076-.808 2.226-1.248 3.45-1.322h.586c.172 0 .318.013.44.037v3.633zm7.787 16.075c-.93 0-1.798-.147-2.606-.44a6.796 6.796 0 0 1-2.055-1.285 6.3 6.3 0 0 1-1.358-1.908 5.936 5.936 0 0 1-.477-2.386c0-.905.196-1.725.587-2.459a5.829 5.829 0 0 1 1.652-1.908c.734-.538 1.59-.954 2.569-1.248 1.003-.294 2.104-.44 3.303-.44.905 0 1.798.085 2.679.256.88.147 1.676.355 2.385.624v-1.32c0-1.42-.403-2.52-1.21-3.304-.808-.807-1.97-1.21-3.487-1.21a8.317 8.317 0 0 0-3.046.586c-.979.367-1.994.906-3.046 1.615l-1.248-2.569c2.47-1.664 5.04-2.495 7.707-2.495 2.642 0 4.697.672 6.165 2.018 1.468 1.346 2.202 3.279 2.202 5.799v6.936c0 .856.355 1.297 1.065 1.321v3.45a10.35 10.35 0 0 1-1.028.147 8.929 8.929 0 0 1-.807.036c-.783 0-1.395-.195-1.835-.587-.416-.391-.673-.893-.771-1.504l-.11-1.212a8.69 8.69 0 0 1-3.193 2.606c-1.248.587-2.594.88-4.037.88zm1.1-2.973a7.33 7.33 0 0 0 2.753-.514c.881-.367 1.566-.868 2.056-1.504.513-.44.77-.906.77-1.395V24.48a12.12 12.12 0 0 0-2.202-.624 11.763 11.763 0 0 0-2.238-.22c-1.444 0-2.63.318-3.56.954-.906.612-1.358 1.431-1.358 2.459 0 .954.355 1.761 1.064 2.422.71.636 1.615.954 2.716.954zm13.266-7.009c0-1.346.233-2.618.697-3.817a9.592 9.592 0 0 1 1.982-3.156 9.46 9.46 0 0 1 3.156-2.129c1.224-.538 2.594-.807 4.111-.807 1.982 0 3.682.44 5.101 1.32 1.444.857 2.52 2.007 3.23 3.45l-3.927 1.248a4.913 4.913 0 0 0-1.872-1.871 5.008 5.008 0 0 0-2.606-.698 5.5 5.5 0 0 0-2.275.477 5.384 5.384 0 0 0-1.798 1.358 6.154 6.154 0 0 0-1.211 2.019c-.294.783-.441 1.651-.441 2.605 0 .93.147 1.799.441 2.606a7.229 7.229 0 0 0 1.247 2.055 6.308 6.308 0 0 0 1.835 1.395c.71.318 1.456.477 2.239.477.489 0 .979-.061 1.468-.183.489-.147.93-.343 1.321-.588a4.642 4.642 0 0 0 1.065-.844c.318-.318.55-.66.697-1.027l3.963 1.174c-.636 1.444-1.7 2.63-3.192 3.56-1.493.905-3.254 1.358-5.285 1.358-1.493 0-2.851-.27-4.074-.807a9.935 9.935 0 0 1-3.156-2.166 10.583 10.583 0 0 1-2.019-3.193 10.482 10.482 0 0 1-.697-3.817zm35.107 9.615l-6.129-8.845-3.193 3.01v5.835h-4.037V6.239h4.037v16.992l8.808-9.358h4.404l-7.45 8.037 7.854 11.12h-4.294zm14.442.367c-1.493 0-2.851-.257-4.074-.77a9.935 9.935 0 0 1-3.156-2.166 10.1 10.1 0 0 1-2.019-3.156 10.461 10.461 0 0 1-.697-3.817c0-1.346.232-2.618.697-3.817a9.994 9.994 0 0 1 2.019-3.193 9.201 9.201 0 0 1 3.156-2.165c1.223-.538 2.593-.807 4.11-.807 1.493 0 2.838.269 4.037.807 1.224.538 2.263 1.26 3.12 2.165a8.752 8.752 0 0 1 1.945 3.12 9.977 9.977 0 0 1 .697 3.706c0 .294-.012.575-.037.845-.024.244-.049.452-.073.623H150.43c.073.857.269 1.627.587 2.313a6.865 6.865 0 0 0 1.285 1.798 6.02 6.02 0 0 0 1.798 1.137 5.75 5.75 0 0 0 2.128.404c.539 0 1.065-.061 1.578-.183a6.551 6.551 0 0 0 1.468-.587 5.6 5.6 0 0 0 1.175-.955 4.36 4.36 0 0 0 .807-1.21l3.45.99c-.661 1.444-1.762 2.63-3.303 3.56-1.517.905-3.291 1.358-5.321 1.358zm5.835-11.414a6.24 6.24 0 0 0-.624-2.239 5.301 5.301 0 0 0-1.248-1.724 5.49 5.49 0 0 0-1.798-1.138 5.867 5.867 0 0 0-2.165-.404c-.759 0-1.481.135-2.166.404-.66.27-1.248.648-1.761 1.138a5.301 5.301 0 0 0-1.248 1.724 6.71 6.71 0 0 0-.587 2.24h11.597zM180 17.322c-1.566.05-2.961.416-4.184 1.101-1.199.66-2.055 1.615-2.569 2.863V33.03h-4.037V13.836h3.743v4.294c.661-1.321 1.517-2.373 2.569-3.156 1.077-.808 2.227-1.248 3.45-1.322h.587c.172 0 .318.013.441.037v3.633zM37.415 34.965l-8.158-8.158a16.385 16.385 0 0 0 3.67-10.342C32.928 7.387 25.542 0 16.465 0 7.386.001 0 7.387 0 16.465c0 9.077 7.386 16.463 16.464 16.463 3.916 0 7.513-1.379 10.343-3.67l8.157 8.158a1.729 1.729 0 0 0 2.451 0 1.731 1.731 0 0 0 0-2.45zm-20.951-5.503c-7.168 0-12.998-5.83-12.998-12.997 0-7.168 5.83-12.998 12.998-12.998 7.168 0 12.998 5.83 12.998 12.998 0 7.168-5.83 12.997-12.998 12.997z" fill="#fff"/><path d="M16.176 25.354l-.002-.003a62.515 62.515 0 0 1-3.334-4.838c-.735-1.19-1.443-2.455-1.966-3.633-.529-1.191-.842-2.24-.842-3.015a6.44 6.44 0 0 1 6.432-6.433 6.44 6.44 0 0 1 6.432 6.432c0 .777-.314 1.825-.843 3.017-.523 1.177-1.231 2.441-1.966 3.632a62.918 62.918 0 0 1-3.334 4.839l-.001.002a.361.361 0 0 1-.576 0zm-1.945-11.49c0 1.231 1 2.233 2.233 2.233a2.235 2.235 0 0 0 2.233-2.233c0-1.23-1-2.232-2.233-2.232a2.235 2.235 0 0 0-2.233 2.232z" fill="#fff" stroke="#303030"/></svg>