<svg width="550" height="314" viewBox="0 0 550 314" fill="none" xmlns="http://www.w3.org/2000/svg"><path d="M314.769 238.581l9.755 5.673 9.075-5.288-8.36-6.445-10.47 6.06zm-48.584-46.646l-16.788-9.701-12.478 7.284 16.788 9.69 12.478-7.273zm7.067 17.496l11.581-6.728-11.661-6.717-22.596 13.116 22.676.329zm-134.397 6.116l-8.542 4.959 12.353 7.137 8.542-4.97-12.353-7.126zm144.731 12.606l12.92 7.455 8.984-5.22-12.92-7.454-8.984 5.219zM72.45 189.359l-10.061-5.854-7.578 4.402 10.062 5.81 7.577-4.358zM284.482 85.085l9.585 5.538 6.023-2.429-10.538-6.081-5.07 2.972zm-9.075-20.888l-8.576 6.614 4.617 2.009 8.576-6.615-4.617-2.008zm29.164 23.01l11.219-3.926-14.168-8.158-8.962 5.22 11.911 6.864zM294.01 73.943l-8.156-4.686-10.129 5.889 8.11 4.675 10.175-5.878zM89.25 206.05l12.353 7.137 8.871-5.163-12.353-7.136-8.87 5.162zm442.757-25.371l2.189.125c1.588-10.359-5.57-17.485-13.612-22.125a71.291 71.291 0 0 0-15.949-6.491l13.192-7.091 31.093-11.256-2.348-2.167-30.038 10.87-51.851-20.605 32.057-18.631-5.49-3.166-11.162 6.49.919-1.134-64.261-17.179-.919 1.135c-.782-5.515-4.537-10.915-11.23-15.33l1.6.92 20.747-12.062-3.131-1.804-20.679 12.05-.635-.385-27.111-15.659 20.656-12.004-3.13-1.816-20.657 12.016-37.626-21.75L323.117.44l-7.577.863 3.063 8.873-35.346-3.302-34.711 22.024-20.237-15.795-6.193 2.667 10.765 8.396-1.793-.737-30.956 25.053-12.863-11.608-3.71 1.396 26.646 24.088 1.86-.68c-14.156 9.882-21.201 19.708-24.173 24.848l-43.49-25.11-5.456 3.166 20.134 11.63-17.287 10.053 13.396 35.969-57.42 10.779-14.213-33.87-10.731 1.532 5.002 11.914-1.565-.907-28.767 16.702-7.271 20.037L0 171.807l3.13 1.804 40.145-23.329 19.057-1.134 9.994 26.414-59.27 2.043.42 3.835 79.597-2.644-1.543.511 9.336 9.689-40.337 17.508 2.665 2.054 39.838-17.36 4.231 4.391a31.789 31.789 0 0 0 7.09 5.423c8.769 5.072 21.133 7.75 33.849 7.058l17.015-.942-10.209 26.812-65.679-14.66-3.936 5.968 142.859 31.895 13.715 7.943-21.553 12.56-45.374-6.297-1.021 2.485 46.009 6.377 29.72 17.156-16.096 9.36 3.131 1.816 16.107-9.361 24.956 14.387 40.019-3.653-.34-1.26 8.542 4.936 7.793-4.539-20.305-11.72 31.16-18.155 20.294 11.721 4.662-2.712-11.344-6.535 1.895.658 33.395-32.156 61.027-19.527-1.134-1.135 12.943 3.79 4.957-5.674-20.702-6.07-24.808-54.327 15.938-3.665-.828-1.134 16.039 14.977 90.838 8.725 1.135-3.744-17.015-1.691zm-53.598-73.082l-27.928 16.225a63.726 63.726 0 0 1-16.436 6.502l17.015-30.023 27.349 7.296zM416.02 90.929l31.07 8.294-17.787 31.316 2.099.397a85.709 85.709 0 0 1-15.881 1.895c-13.941.397-27.621-2.405-38.035-7.749l25.206-14.683c9.21-5.355 13.612-12.435 13.283-19.47h.045zM336.775 193.83l-2.031-45.136 71.283 63.472-22.415 10.507 1.554-.897-48.391-27.946zm45.113 29.648l-32.068 15.057-51.182-42.322 35.074-.545 48.176 27.81zm-112.561 17.417l7.645-22.795-2.178-.249 41.767-.137 28.926 23.919-7.305 12.821.635-1.237-69.49-12.322zm-82.002-92.564l20.237-20.424 39.328 12.152 1.032-1.135 9.574 34.233a115.512 115.512 0 0 0-30.628-2.984l-18.024.624 1.871-.681-23.39-21.785zm72.439-64.811l8.689 4.311 5.026 32.054-24.956 1.645 2.167-.238-10.969-31.872 20.894-4.71-.851-1.19zm-3.153-10.076l20.327-14.898 7.385 5.82a23.55 23.55 0 0 0 2.666 1.725c6.397 3.7 15.699 5.367 24.672 4.312l5.354-.624 11.184 14.342-1.134-1.135-45.862 15.33L279.06 84.7l-24.185-12.028 1.736.772zm-3.403-1.634l-27.02-13.389a142.911 142.911 0 0 1 33.474-13.343l15.881 12.413-1.747-.794-20.588 15.113zm-7.509 48.154l-39.646-22.942 29.493-6.65 10.153 29.592zm-1.543 5.435l3.312 11.892-37.717-11.653 12.648-12.799 21.757 12.56zm-16.868 48.654a102.313 102.313 0 0 1 32.896 4.142 72.805 72.805 0 0 1 15.03 6.41 51.9 51.9 0 0 1 7.067 4.868l29.663 24.418-67.561.215-66.484-38.396 49.389-1.657zm34.87-8.215l31.682 2.723.987 24.566-7.067-5.844a56.535 56.535 0 0 0-7.759-5.344 79.489 79.489 0 0 0-15.2-6.66l-2.643-9.441zm37.104 27.867l-.93-24.815 33.089 2.848.964 21.389-33.123.578zm-37.161-30.51l-.306 1.259-3.687-13.196 72.178-3.234.965 21.116-69.15-5.945zm-4.537-14.479l.181 1.283-6.738-24.123 54.131-3.574 25.977 23.124-73.551 3.29zm48.391-31.021l-21.485 1.418-3.051-19.425 1.134 1.135 46.565-15.533 22.902 29.387-46.054 3.018h-.011zm42.413-17.02l1.577.908 26.09-15.181 27.825 16.066 1.554-.908a27.636 27.636 0 0 1-7.441 6.071l-25.341 14.75-13.408-7.738-10.856-13.968zm49.457-25.166c11.593 6.694 14.452 16.566 8.576 24.815L353.575 69.87l17.139-9.962 27.111 15.601zm-57.227-24.497l-3.698-10.62 30.627 17.7-20.203 11.778 25.591 14.75-25.523 14.92-23.9-30.635c12.273-2.734 19.749-10.212 17.106-17.893zm-17.31-27.186l9.732 28.06c2.087 6.059-4.707 11.993-15.132 13.218l-7.815.92c-6.444.76-13.091-.443-17.674-3.087a15.842 15.842 0 0 1-1.871-1.26l-17.911-13.99 1.463.965 49.208-24.826zm-3.335-9.645l2.835 8.192-1.451-.964-24.502 12.322-8.712-22.511 31.83 2.961zm-36.027-2.008l9.075 23.544-21.746 10.96-18.682-14.625 31.353-19.88zm-81.23 38.646l31.568-25.564 21.371 16.68a146.092 146.092 0 0 0-38.272 16.225 149.746 149.746 0 0 0-3.812 2.474l-10.855-9.815zm15.949 12.288l39.236 19.47-54.357 12.255.816 1.191-11.161-6.433c2.019-3.87 9.029-15.374 25.466-26.483zM146.591 87.06l15.62-9.078 58.566 33.824-1.917-.646-34.2 34.606-24.808-23.181-13.261-35.525zm10.209 37.534l49.537 46.248-34.756 1.203h-.726l-3.698.125-25.103.873 2.189-.261-15.302-42.992 27.859-5.196zm-57.851 10.847l25.749-4.834 15.166 42.572-24.876.851-16.697-39.769.658 1.18zm-53.904 12.152l6.5-17.939 26.895-15.635 12.897 30.715-46.292 2.859zm29.493 27.833l2.155-.272-9.96-26.324 25.364-1.566-.215-1.271 11.922 28.435-29.266.998zm42.878 23.748a28.728 28.728 0 0 1-6.25-4.822l-15.155-15.704 67.47-2.269 6.806 3.937-42.662 23.045a44.954 44.954 0 0 1-10.198-4.187h-.011zm30.332 6.332a64.131 64.131 0 0 1-15.597-1.044l41.279-22.308 58.668 33.892-14.803 8.601 1.225-1.067-49.911-19.22-20.861 1.146zm9.336 28.899l2.166.284 10.277-26.903 46.18 17.78-27.225 15.885-31.398-7.046zm77.294 17.247l-34.643-7.727 44.693-25.984 28.109-.079-15.676 46.781-22.483-12.991zm18.399 43.876l-28.597-16.509 20.906-12.152 28.608 16.487-20.917 12.174zm62.672 11.971l-36.208 3.313-23.333-13.479 20.872-12.153 38.669 22.319zm-6.726-12.901l-49.979-28.865 2.166.249 7.555-22.545 69.013 12.231-8.337 14.615 10.742 6.206-31.16 18.109zm47.892-13.854l-19.897-11.494 15.268-26.744-.612 1.237 37.206 6.286-31.965 30.715zm34.302-33.018l-36.855-6.241 53.904-25.302 12.036 3.54-29.085 28.003zm60.12-18.892l-52.883 16.952 25.738-24.838-1.894-.658 29.039 8.544zm-5.671-8.839l-33.486-9.815-.341-.091-99.13-88.275 25.625-1.691-1.724.795 69.785 50.843 15.597-3.585 23.674 51.819zm-37.853-51.32l-66.927-48.733 15.064-.987 13.93 8.044c11.797 6.808 27.939 10.53 44.534 10.337l25.614 23.93-32.215 7.409zm14.088-31.691c12.988-1.134 25.024-4.538 34.359-9.985l7.113-4.141-1.237 1.055 51.046 20.31-53.02 28.503-38.261-35.742zm108.137 43.491l-65.962-6.365 37.286-20.038a65.526 65.526 0 0 1 16.278 6.365c7.327 4.21 13.827 10.655 12.398 20.038zm-254.32 58.627l10.107 1.895 5.366-3.12-6.704-3.869-8.769 5.094zm-146.239-25.427l-8.338-4.822-12.568 7.307 8.337 4.788 12.569-7.273zm370.453-47.78l6.455 3.733 8.303-4.822-6.466-3.733-8.292 4.822zM170.9 255.827l16.346 9.452 15.597-9.077-23.186-5.481-8.757 5.106zm290.029-57.163l13.453 7.772 5.161-3.007-13.453-7.761-5.161 2.996zm-232.087 68.805l-5.671-3.279-8.553 4.958 5.671 3.29 8.553-4.969zM86.448 186.182l-13.51 7.852 4.696 2.712 15.382-6.808-6.568-3.756zm394.071-1.69l-18.286-2.122-14.746 8.555 11.014 6.366 22.018-12.799zm-281.487 80.787l6.023 3.472 14.1-8.192-8.258-2.168-11.865 6.888zm-67.63-144.18l11.797-6.808-3.89-9.224-17.821 10.359 9.914 5.673zm5.797-22.693l-4.265-11.346-14.429 8.385 11.876 6.808 6.818-3.847zm295.836 76.941l11.015 6.354 6.658-3.87-11.014-6.365-6.659 3.881zm-303.561-69.066l-14.905-8.59-17.129 9.985 7.192 13.049 24.842-14.444zm107.933 97.42l7.169-4.164-19.976-11.494-7.158 4.164 19.965 11.494zm115.918-14.012l16.607 13.786 10.969-4.426-16.596-13.786-10.98 4.426zm53.654-63.291l12.818-7.455-11.162-6.445-12.818 7.466 11.162 6.434zM61.255 164.999l-5.9-3.404-10.208 5.957 5.898 3.404 10.21-5.957zm-34.598-2.088l7.09 4.096 12.477-7.273-7.1-4.096-12.467 7.273zm453.816 31.01l11.9 6.808 9.313-5.413-11.9-6.876-9.313 5.481zm-12.477 20.026l-6.08-3.506-7.204 4.187 6.081 3.506 7.203-4.187zm-44.977-87.027l5.297-3.086-4.287-2.474-5.298 3.075 4.288 2.485zm14.338-26.517l-5.91-1.27-7.226 11.346 5.933 1.259 7.203-11.335zm-173.396 32.406l12.353 7.137 5.593-3.245-12.353-7.137-5.593 3.245zm-73.913-10.87l11.899-6.922-10.924-6.308-11.91 6.921 10.935 6.309zm-35.777 30.726l12.33-7.16-6.897-3.982-12.33 7.171 6.897 3.971zm33.44-52.943l-22.687-13.116-6.103 3.551 22.687 13.117 6.103-3.552zm-8.961 62.156l7.169-4.164-10.096-8.861-9.789 5.673 12.716 7.352zm-28.359 1.77l8.939 5.163 23.208-.874-19.828-11.46-12.319 7.171zm157.118-116.97l-8.349-5.89-15.098 7.183 8.349 5.889 15.098-7.182zm37.331 220.291l13.317 7.693 6.024-6.127-15.03-8.68-4.311 7.114zm-20.418-226.85l-3.596-7.693-5.479.851 3.596 7.705 5.479-.863zm-146.455 92.622l5.672 3.256 9.392-5.458-5.672-3.256-9.392 5.458zm194.381 125.65l-10.663-6.149-6.636 3.88 10.652 6.161 6.647-3.892zm-158.15-68.078l7.158-4.165-8.667-5.003-7.157 4.164 8.666 5.004zM52.747 142.805l16.164-.352 2.121-1.237-7.804-4.538-10.481 6.127zm19.284-11.222l-4.538 2.655 9.313 5.379 4.538-2.667-9.313-5.367zm248.716 133.174l-13.612-7.943-6.046 3.506 13.612 7.886 6.046-3.449zm-39.702 8.476l19.873 11.471 7.657-4.448-19.885-11.471-7.645 4.448zm25.227-.091l13.045 7.534 4.538-2.655-13.045-7.523-4.538 2.644zM77.702 126.534l-7.055-4.073-11.344 6.592 7.056 4.062 11.344-6.581zm78.134 12.719l-9.245-5.332-6.069 3.517 9.257 5.344 6.057-3.529zm143.71 114.452l-15.881-3.404-9.29 5.401 10.833 6.252 14.338-8.249zm10.878-111.195l4.538-2.644-3.869-2.269-4.537 2.644 3.868 2.269zm-17.423 18.404l14.145 1.078 1.248-5.673-14.134-1.135-1.259 5.73zm10.402-107.168l5.909 4.176 13.511-6.422-5.922-4.153-13.498 6.4zm141.339 87.028l-7.033 4.096 15.143 8.737 7.033-4.085-15.143-8.748zm-150.301-5.775l5.173 2.984 8.247-4.789-5.173-3.018-8.247 4.823zm-25.488 24.326l10.356.795.783-3.529-10.368-.794-.771 3.528zm214.912 10.45l4.537 2.633 6.035-3.506-4.537-2.633-6.035 3.506zm-.295-31.373l-16.731 9.724 7.089 4.096 16.732-9.723-7.09-4.097zm-24.343 25.167l3.539 2.042 8.179-4.754-3.539-2.042-8.179 4.754zm-57.67-13.264l11.616 6.717 6.352-3.699-11.615-6.706-6.353 3.688zm-31.693-74.796l9.71-5.673-6.171-3.574-9.71 5.673 6.171 3.574zm109.963 60.704l-13.045-7.534-7.419 4.311 13.045 7.534 7.419-4.311zm-83.329-47.395l6.194-3.562-18.955-10.95-6.148 3.563 18.909 10.95zm-33.123-4.731l-8.326-4.788-10.776 6.263 8.292 4.788 10.81-6.263zm29.493 16.271l-14.871-8.59-3.789 2.202 14.871 8.589 3.789-2.201zm-3.959 6.808l-9.211-5.322-7.52 4.38 9.211 5.321 7.52-4.379zm-21.382-.046l-6.454-3.721-4.05 2.348 6.443 3.722 4.061-2.349z" fill="url(#a)"/><path d="M74.447 177.525l126.978-4.539s47.642-3.71 59.145 3.314l-13.873-53.113 109.623-6.808s17.128 11.993 33.406 15.885c16.278 3.892 44.534 6.172 69.717-10.45" stroke="#303030" stroke-width="2" stroke-miterlimit="10"/><path d="M460.872 124.662a8.251 8.251 0 0 1-2.836-.477 5.498 5.498 0 0 1-.942-.442 3.476 3.476 0 0 1-1.894-2.576 2.922 2.922 0 0 1 1.066-2.53 6.93 6.93 0 0 1 4.538-1.521 8.365 8.365 0 0 1 2.847.477c.326.12.641.268.941.443a3.5 3.5 0 0 1 1.906 2.587 3.012 3.012 0 0 1-1.066 2.53 6.917 6.917 0 0 1-4.606 1.509h.046z" fill="#fff"/><path d="M460.861 118.251a7.35 7.35 0 0 1 2.45.408c.268.096.527.218.771.364 1.498.862 1.815 2.269.647 3.29a5.89 5.89 0 0 1-3.857 1.214 7.125 7.125 0 0 1-2.45-.408 5.944 5.944 0 0 1-.76-.352c-1.486-.862-1.804-2.269-.635-3.291a5.842 5.842 0 0 1 3.834-1.225zm0-2.269a7.943 7.943 0 0 0-5.366 1.815 4.083 4.083 0 0 0-1.429 3.484 4.54 4.54 0 0 0 2.462 3.403 6.56 6.56 0 0 0 1.134.511 9.234 9.234 0 0 0 3.233.556 8.084 8.084 0 0 0 5.377-1.804 4.079 4.079 0 0 0 1.429-3.495 4.618 4.618 0 0 0-2.462-3.404 7.691 7.691 0 0 0-1.134-.51 9.539 9.539 0 0 0-3.244-.556z" fill="#303030"/><path d="M74.447 181.303a8.34 8.34 0 0 1-2.847-.476 5.956 5.956 0 0 1-.941-.443 3.486 3.486 0 0 1-1.895-2.553 2.963 2.963 0 0 1 1.066-2.53 6.95 6.95 0 0 1 4.606-1.52 8.275 8.275 0 0 1 2.836.476c.327.118.642.266.941.443a3.47 3.47 0 0 1 1.906 2.587 2.971 2.971 0 0 1-1.066 2.53 6.893 6.893 0 0 1-4.606 1.509v-.023z" fill="#fff"/><path d="M74.435 174.893a7.075 7.075 0 0 1 2.45.408c.265.096.52.217.76.363 1.498.862 1.816 2.269.647 3.291a5.895 5.895 0 0 1-3.845 1.214 7.076 7.076 0 0 1-2.45-.409 5.346 5.346 0 0 1-.772-.352c-1.486-.862-1.803-2.269-.635-3.29a5.87 5.87 0 0 1 3.845-1.225zm0-2.27a8.007 8.007 0 0 0-5.376 1.816 4.076 4.076 0 0 0-1.418 3.483 4.535 4.535 0 0 0 2.45 3.404c.364.201.743.371 1.134.511a9.588 9.588 0 0 0 3.245.556 8.061 8.061 0 0 0 5.365-1.804 4.076 4.076 0 0 0 1.44-3.495 4.622 4.622 0 0 0-2.472-3.404 7.724 7.724 0 0 0-1.135-.511 9.473 9.473 0 0 0-3.233-.556z" fill="#303030"/><path d="M244.621 78.47a8.476 8.476 0 0 0-3.845 6.66c0 2.452 1.713 3.405 3.845 2.27a8.5 8.5 0 0 0 3.8-6.706c0-2.45-1.678-3.449-3.8-2.223zm0-11.596c-7.248 4.187-13.124 14.365-13.124 22.693.025 1.263.207 2.517.545 3.733 1.134 4.652 3.947 10.802 6.454 15.885 2.507 5.084 4.73 9.021 4.742 9.078l1.383 2.462 1.384-4.062s2.904-8.521 5.819-17.984c1.464-4.743 2.916-9.713 4.027-14.013.545-2.145 1.01-4.13 1.35-5.855a25.46 25.46 0 0 0 .545-4.357c0-8.374-5.922-11.766-13.125-7.58zm9.586 12.8c-1.055 5.457-3.812 14.75-6.285 22.692a671.816 671.816 0 0 1-3.278 10.144v.079c-1.35-2.519-3.482-6.615-5.456-10.915-1.237-2.7-2.405-5.48-3.244-7.942a33.577 33.577 0 0 1-.999-3.404 10.87 10.87 0 0 1-.34-2.474 22.185 22.185 0 0 1 10.039-17.394c2.779-1.6 5.275-1.747 7.101-.704 1.826 1.044 2.938 3.29 2.938 6.502a20.588 20.588 0 0 1-.476 3.415z" fill="#ED3232"/><defs><radialGradient id="a" cx="0" cy="0" r="1" gradientUnits="userSpaceOnUse" gradientTransform="matrix(208.594 0 0 121.017 274.5 157.636)"><stop stop-color="#D1D3D4"/><stop offset="1" stop-color="#F9FBFC"/></radialGradient></defs></svg>